<?xml version="1.0" standalone="no"?>
<!DOCTYPE svg PUBLIC "-//W3C//DTD SVG 20010904//EN"
 "http://www.w3.org/TR/2001/REC-SVG-20010904/DTD/svg10.dtd">
<svg version="1.0" xmlns="http://www.w3.org/2000/svg"
 width="1024.000000pt" height="1024.000000pt" viewBox="0 0 1024.000000 1024.000000"
 preserveAspectRatio="xMidYMid meet">

<g transform="translate(0.000000,1024.000000) scale(0.100000,-0.100000)"
fill="#000000" stroke="none">
<path d="M7951 7069 c-85 -17 -211 -87 -282 -158 -90 -90 -107 -124 -108 -223
l-1 -47 -31 11 c-73 25 -538 -20 -579 -57 -47 -43 -46 -118 4 -150 22 -14 48
-16 214 -9 104 4 201 4 216 0 14 -3 32 -19 40 -34 8 -15 69 -182 136 -372 67
-190 144 -407 171 -483 46 -131 48 -141 46 -230 -3 -90 -5 -97 -100 -339 -107
-272 -130 -325 -149 -349 -22 -27 -74 -48 -130 -54 -50 -4 -367 -16 -488 -17
l-54 -1 -28 68 c-102 249 -144 429 -114 486 7 13 38 70 70 126 57 101 72 156
55 199 -6 18 -4 23 16 28 40 10 92 63 108 110 30 89 -1 195 -72 243 l-34 23
-449 0 -448 0 -37 -33 c-35 -33 -36 -37 -41 -115 l-5 -82 -58 0 -59 0 0 300
c0 253 2 300 14 300 8 0 22 7 30 16 24 23 24 495 1 518 -36 35 -80 37 -732 34
l-642 -3 -23 -23 c-22 -22 -23 -29 -26 -235 -3 -237 3 -287 36 -302 l22 -10 0
-360 c-1 -199 2 -369 6 -379 12 -32 55 -37 298 -36 l241 0 -56 -49 c-59 -53
-89 -101 -89 -145 0 -14 -21 -72 -46 -128 -46 -101 -154 -358 -154 -365 0 -2
19 -3 42 -1 42 3 43 4 115 113 41 61 104 163 141 228 86 151 131 198 235 247
159 74 139 73 840 77 592 4 628 3 634 -13 4 -12 -16 -62 -62 -147 l-68 -130 6
-96 c5 -83 13 -117 62 -256 31 -88 59 -168 62 -178 5 -16 0 -18 -43 -15 l-48
3 -76 176 c-89 206 -113 249 -179 321 -91 99 -222 159 -384 177 -345 39 -614
-28 -782 -193 -57 -56 -185 -251 -185 -281 0 -20 580 -54 938 -55 l212 0 -6
-26 c-4 -15 -52 -130 -107 -258 -54 -127 -115 -273 -133 -324 -19 -51 -41
-106 -49 -122 l-16 -30 151 0 c82 0 150 -2 150 -5 0 -22 -51 -97 -94 -141 -80
-80 -122 -97 -241 -101 -55 -2 -106 0 -113 5 -8 5 -15 41 -18 93 l-6 84 132
330 c73 182 135 338 137 348 5 15 -5 17 -105 17 -89 0 -112 -3 -123 -16 -8 -9
-42 -96 -76 -193 -43 -123 -64 -170 -68 -156 -4 11 -32 94 -63 185 -47 136
-61 167 -82 177 -30 15 -206 18 -215 3 -7 -12 -5 -18 143 -400 l106 -275 6
-187 c6 -215 9 -222 98 -271 68 -37 77 -39 218 -44 114 -5 125 -3 213 26 200
67 356 215 434 413 15 36 27 74 27 82 0 14 54 16 535 16 447 0 548 3 612 16
202 41 360 167 452 359 21 44 55 115 75 158 76 159 261 312 456 375 129 43
338 55 467 28 37 -8 96 -18 130 -22 62 -6 63 -6 73 21 14 38 7 55 -48 113
-125 131 -334 215 -574 230 l-113 7 -157 375 c-87 206 -172 404 -190 440 -37
73 -82 110 -133 110 -18 0 -46 5 -64 11 -18 6 -34 9 -36 7 -2 -2 18 -65 45
-139 192 -529 204 -571 203 -714 -1 -49 -8 -120 -17 -156 -22 -94 -228 -649
-278 -749 -53 -105 -137 -194 -228 -241 l-65 -34 -462 -3 -463 -3 0 60 0 60
383 4 c401 4 398 4 512 52 97 42 191 127 235 215 30 59 43 93 169 430 64 172
82 234 91 307 17 140 12 160 -184 708 l-115 320 75 3 c62 2 89 -2 163 -28 102
-35 123 -36 205 -13 76 20 89 32 126 107 91 188 76 456 -36 632 -30 48 -36 52
-97 68 -71 17 -126 19 -196 5z m151 -186 c45 -52 67 -145 64 -267 -4 -131 -41
-208 -102 -208 -32 0 -67 33 -95 91 -18 36 -23 67 -25 146 -3 115 18 194 61
233 31 26 76 29 97 5z m-2961 -293 l506 0 2 -105 1 -105 -545 1 -545 1 0 110
0 111 38 -7 c20 -3 265 -6 543 -6z m439 -685 l0 -295 -480 0 -480 0 0 295 0
295 480 0 480 0 0 -295z"/>
<path d="M3189 5873 c-8 -10 -27 -40 -41 -68 -14 -27 -59 -113 -99 -190 l-74
-140 -5 200 -5 200 -107 3 -108 3 0 -521 0 -520 105 0 105 0 0 103 c1 56 1
153 1 215 0 100 2 112 18 112 12 0 26 -19 44 -57 28 -62 133 -261 173 -331
l25 -43 127 3 c113 3 127 5 126 20 -2 19 -198 377 -264 481 l-39 62 21 35
c137 231 248 432 243 440 -4 6 -54 10 -119 10 -95 0 -115 -3 -127 -17z"/>
<path d="M1250 5792 c0 -55 4 -92 12 -100 8 -8 46 -12 105 -12 l93 0 0 -420 0
-420 110 0 109 0 -4 420 -4 420 98 0 c72 0 102 4 110 14 8 9 11 45 9 98 l-3
83 -317 3 -318 2 0 -88z"/>
<path d="M2126 5867 c-17 -13 -46 -107 -86 -287 -10 -47 -42 -186 -70 -310
-44 -196 -90 -413 -90 -426 0 -2 47 -4 105 -4 116 0 118 1 130 75 3 22 9 56
13 75 l8 35 121 3 121 3 10 -48 c6 -26 14 -65 17 -85 4 -21 13 -42 20 -48 8
-7 54 -10 117 -8 l105 3 -43 195 c-24 107 -59 265 -79 350 -20 85 -43 182 -50
215 -47 208 -58 246 -78 260 -28 20 -245 21 -271 2z m200 -610 l6 -38 -79 3
c-47 2 -77 7 -76 13 1 6 19 95 39 198 l38 188 33 -163 c18 -90 36 -180 39
-201z"/>
<path d="M3566 5864 c-14 -14 -16 -69 -14 -517 l3 -502 260 0 260 0 0 95 0 95
-157 3 -158 3 0 114 0 115 123 0 c82 0 127 4 135 12 8 8 12 45 12 100 l0 87
-132 3 -133 3 -3 105 -3 105 154 -3 c125 -2 156 0 166 12 8 9 11 43 9 98 l-3
83 -252 3 c-219 2 -253 0 -267 -14z"/>
<path d="M8601 4760 c-258 -72 -435 -252 -496 -505 -25 -104 -23 -261 5 -350
95 -301 340 -500 630 -511 260 -10 494 132 626 381 70 131 88 354 40 513 -39
132 -132 270 -237 348 -165 124 -391 173 -568 124z m310 -337 c238 -111 295
-408 115 -595 -55 -58 -123 -93 -207 -109 -186 -34 -382 109 -419 307 -21 109
9 227 78 304 l38 43 46 -105 c43 -94 46 -109 42 -158 -12 -122 74 -206 192
-187 103 17 161 159 101 248 -28 42 -82 79 -116 79 -23 0 -30 10 -68 97 -32
72 -39 99 -30 105 6 4 46 6 88 4 59 -2 90 -9 140 -33z"/>
<path d="M632 4588 c-14 -14 -18 -1013 -3 -1022 11 -7 305 -8 356 -1 22 3 62
16 90 29 151 69 198 184 198 486 0 189 -11 265 -49 345 -49 105 -122 151 -261
165 -129 14 -316 13 -331 -2z m338 -211 c64 -42 75 -75 78 -237 5 -191 -4
-281 -31 -322 -30 -43 -72 -66 -130 -69 l-47 -3 -3 327 -2 327 51 0 c36 0 61
-6 84 -23z"/>
<path d="M1412 4588 c-16 -16 -17 -979 -2 -1009 10 -18 24 -19 271 -19 l260 0
-3 98 -3 97 -160 3 -160 2 0 115 0 115 138 0 137 0 0 100 0 100 -135 0 -135 0
0 105 0 105 150 0 150 0 10 26 c11 29 13 97 4 143 l-6 31 -252 0 c-183 0 -255
-3 -264 -12z"/>
<path d="M2050 4091 c0 -419 2 -511 14 -520 9 -8 86 -11 257 -9 l244 3 0 95 0
95 -147 3 -148 3 0 352 c0 193 -3 382 -7 420 l-6 67 -103 0 -104 0 0 -509z"/>
<path d="M2665 4578 c-3 -13 -4 -246 -3 -518 l3 -495 102 -3 c99 -3 103 -2
108 20 3 13 4 246 3 518 l-3 495 -102 3 c-99 3 -103 2 -108 -20z"/>
<path d="M2973 4584 c-3 -9 22 -127 55 -262 34 -136 87 -353 118 -482 31 -129
63 -245 70 -257 14 -22 21 -23 139 -23 146 0 143 -3 169 120 22 96 68 291 107
445 70 277 108 460 96 467 -22 14 -194 9 -206 -6 -13 -15 -34 -108 -111 -494
-30 -144 -55 -260 -57 -258 -2 2 -10 34 -17 72 -8 38 -23 112 -34 164 -11 52
-23 111 -26 130 -6 35 -11 64 -21 110 -8 38 -15 72 -20 105 -14 83 -38 161
-53 173 -10 7 -50 12 -109 12 -76 0 -95 -3 -100 -16z"/>
<path d="M3830 4581 c-15 -30 -14 -993 2 -1009 19 -19 501 -17 517 2 8 9 11
45 9 98 l-3 83 -157 3 -158 3 0 114 0 115 135 0 135 0 0 100 0 100 -135 0
-135 0 0 105 0 105 150 0 150 0 10 26 c11 28 13 133 4 158 -5 14 -38 16 -260
16 -240 0 -254 -1 -264 -19z"/>
<path d="M4481 4582 c-17 -32 -15 -982 2 -1005 10 -15 27 -17 107 -15 l95 3 3
173 2 172 34 0 34 0 52 -127 c28 -71 61 -148 73 -173 l22 -45 113 -3 c98 -2
112 -1 112 14 0 9 -34 97 -75 196 l-76 180 31 34 c60 69 84 151 84 294 0 83
-3 103 -27 155 -36 78 -56 97 -130 131 -58 26 -71 27 -253 32 -186 5 -192 4
-203 -16z m334 -186 c46 -30 60 -64 59 -141 -1 -118 -33 -155 -135 -155 l-49
0 0 154 c0 139 2 155 18 159 32 7 82 -1 107 -17z"/>
<path d="M6942 3764 c-26 -18 -30 -65 -7 -88 25 -25 82 -27 527 -24 383 3 429
5 444 20 23 23 24 59 0 86 l-19 22 -462 0 c-401 0 -463 -2 -483 -16z"/>
<path d="M6555 3520 c-51 -25 -47 -90 6 -109 22 -8 258 -11 766 -11 l734 0 24
25 c28 28 31 51 9 80 -15 20 -30 20 -762 25 -651 4 -751 3 -777 -10z"/>
</g>
</svg>
