<?xml version="1.0" standalone="no"?>
<!DOCTYPE svg PUBLIC "-//W3C//DTD SVG 20010904//EN"
 "http://www.w3.org/TR/2001/REC-SVG-20010904/DTD/svg10.dtd">
<svg version="1.0" xmlns="http://www.w3.org/2000/svg"
 width="1024.000000pt" height="1024.000000pt" viewBox="0 0 1024.000000 1024.000000"
 preserveAspectRatio="xMidYMid meet">

<g transform="translate(0.000000,1024.000000) scale(0.100000,-0.100000)"
fill="#000000" stroke="none">
<path d="M7945 7059 c-27 -5 -88 -29 -135 -52 -141 -69 -273 -221 -295 -338
l-7 -37 -40 16 c-38 15 -55 14 -252 -7 -116 -13 -223 -30 -238 -37 -40 -20
-56 -80 -34 -123 29 -55 44 -57 261 -31 127 16 198 21 205 14 13 -13 148 -388
267 -741 137 -409 137 -411 -14 -786 -105 -261 -124 -299 -165 -330 -63 -47
-88 -50 -379 -55 l-276 -4 -67 199 c-68 203 -84 275 -72 337 4 20 36 75 74
128 65 90 67 95 67 153 0 33 -3 70 -8 81 -6 18 -3 22 21 27 69 14 122 91 122
175 0 88 -37 147 -115 183 -37 17 -73 19 -468 19 -387 0 -432 -2 -458 -17 -39
-23 -59 -70 -66 -153 l-6 -70 -53 0 -54 0 0 294 0 294 30 30 30 30 0 217 c0
229 -6 261 -49 285 -13 6 -246 10 -678 10 l-659 0 -28 -28 -27 -29 -6 -219
c-5 -199 -4 -223 11 -247 10 -14 27 -29 37 -32 19 -6 20 -18 19 -355 -1 -232
2 -356 9 -369 27 -49 40 -51 298 -51 l244 0 -59 -57 c-66 -65 -95 -131 -111
-246 -8 -57 -21 -87 -77 -185 -37 -64 -74 -127 -82 -139 -14 -23 -14 -23 40
-23 l53 0 115 187 c137 224 205 300 320 356 142 70 142 70 848 74 430 3 632 1
632 -6 0 -6 -36 -65 -80 -131 -44 -67 -85 -138 -91 -160 -16 -51 -9 -76 94
-343 l84 -218 -55 3 -55 3 -24 70 c-36 110 -156 344 -210 410 -60 74 -170 159
-243 186 -89 33 -142 39 -374 39 -245 0 -293 -7 -406 -62 -81 -38 -244 -199
-338 -333 l-64 -90 39 -7 c21 -4 276 -14 568 -23 567 -17 575 -18 575 -68 0
-12 -68 -165 -150 -340 -83 -175 -150 -324 -150 -331 0 -7 8 -20 18 -29 15
-14 42 -17 156 -17 l137 0 -17 -32 c-29 -55 -124 -146 -183 -176 -48 -23 -68
-27 -146 -27 -134 0 -135 1 -135 137 l0 111 135 305 c74 167 132 308 129 313
-3 5 -55 9 -115 9 l-110 0 -14 -32 c-7 -18 -37 -102 -67 -185 -29 -84 -55
-153 -58 -153 -3 0 -34 82 -70 183 l-65 182 -114 3 -113 3 5 -28 c2 -15 59
-158 126 -318 l121 -290 0 -238 0 -238 53 -25 c79 -36 201 -64 277 -64 193 0
407 111 527 273 46 63 106 174 128 237 l12 35 609 11 c682 12 658 9 779 89
100 67 167 156 262 348 36 72 82 156 103 187 80 117 213 223 336 269 156 59
375 65 557 17 117 -31 112 -31 137 -6 30 30 25 65 -17 111 -128 141 -370 246
-594 256 l-117 6 -25 76 c-27 81 -215 500 -299 663 -42 82 -56 101 -101 132
-49 33 -124 66 -152 66 -9 0 -6 -14 10 -47 33 -70 159 -387 184 -463 90 -279
66 -479 -111 -925 -103 -259 -169 -386 -240 -458 -72 -72 -146 -113 -234 -127
-32 -6 -233 -10 -445 -10 -358 0 -387 1 -402 18 -20 22 -48 88 -41 95 3 3 188
6 412 7 232 0 425 5 451 11 153 34 240 141 359 439 127 319 171 469 179 611 5
98 4 113 -27 220 -17 63 -81 250 -142 417 -61 167 -108 305 -106 308 3 2 56
-3 119 -12 219 -31 343 -9 403 69 74 96 106 323 70 495 -27 130 -82 209 -162
232 -55 16 -160 20 -217 9z m175 -187 c56 -57 75 -196 45 -330 -17 -72 -50
-139 -77 -156 -27 -17 -65 8 -91 61 -50 99 -60 228 -27 335 35 114 92 148 150
90z m-2462 -387 l3 -110 -561 0 -560 0 0 113 0 112 558 -2 557 -3 3 -110z
m-70 -577 l-3 -293 -486 -3 -486 -2 -2 295 -2 295 491 0 491 0 -3 -292z"/>
<path d="M1260 5780 l0 -100 100 0 100 0 2 -417 3 -418 108 -3 107 -3 0 420 0
420 103 3 102 3 0 95 0 95 -312 3 -313 2 0 -100z"/>
<path d="M2105 5868 c-2 -7 -50 -206 -106 -443 -56 -236 -110 -461 -119 -500
-10 -38 -14 -74 -10 -78 3 -4 56 -6 115 -5 l109 3 21 90 20 90 125 0 125 0 20
-90 21 -90 109 -3 c59 -1 112 1 116 5 6 6 -140 646 -218 958 l-18 70 -153 3
c-117 2 -153 0 -157 -10z m195 -447 c22 -107 40 -194 40 -195 0 -1 -37 0 -82
1 -46 1 -82 6 -81 10 1 5 19 93 40 195 21 103 39 186 40 184 1 -1 20 -89 43
-195z"/>
<path d="M2755 5868 c-3 -7 -4 -240 -3 -518 l3 -505 105 0 105 0 5 234 5 233
120 -236 120 -236 123 0 c69 0 122 4 122 9 0 6 -53 110 -119 233 -65 123 -130
246 -144 274 l-25 50 128 229 c71 125 127 232 124 237 -3 4 -56 8 -119 8
l-113 0 -35 -62 c-19 -35 -68 -128 -108 -208 l-74 -145 -5 205 -5 205 -103 3
c-76 2 -104 -1 -107 -10z"/>
<path d="M3555 5868 c-3 -7 -4 -240 -3 -518 l3 -505 265 0 265 0 0 95 0 95
-162 3 -163 2 0 115 0 114 138 3 137 3 0 90 0 90 -137 3 -138 3 0 109 0 110
154 0 c120 0 156 3 165 14 8 9 11 45 9 98 l-3 83 -263 3 c-205 2 -264 0 -267
-10z"/>
<path d="M8635 4774 c-140 -30 -285 -120 -382 -235 -63 -76 -128 -217 -149
-319 -67 -338 135 -690 459 -796 113 -38 277 -40 382 -5 113 37 193 87 282
176 67 68 89 99 127 176 59 122 81 229 73 359 -10 184 -77 330 -212 465 -160
161 -365 224 -580 179z m268 -327 c148 -68 234 -213 225 -381 -8 -145 -86
-264 -216 -328 -58 -29 -76 -33 -147 -32 -151 0 -263 71 -332 212 -36 72 -38
81 -38 171 0 88 3 102 32 161 33 67 60 107 67 99 2 -2 29 -55 60 -116 38 -77
56 -125 56 -150 0 -74 60 -145 136 -159 69 -13 153 54 168 135 14 79 -47 175
-122 187 -35 6 -39 10 -82 102 -25 52 -45 100 -45 106 0 34 157 30 238 -7z"/>
<path d="M627 4593 c-4 -3 -7 -237 -7 -520 l0 -513 173 0 c192 0 256 12 321
57 53 37 99 99 128 170 22 55 23 70 23 298 0 225 -2 243 -23 295 -46 117 -117
180 -231 206 -58 14 -372 20 -384 7z m360 -219 c16 -12 34 -33 41 -48 23 -47
34 -165 29 -308 -4 -119 -8 -143 -29 -180 -29 -53 -75 -78 -145 -78 l-53 0 0
321 0 321 65 -4 c45 -3 73 -10 92 -24z"/>
<path d="M1405 4588 c-3 -7 -4 -240 -3 -518 l3 -505 265 0 265 0 0 95 0 95
-162 3 -163 2 0 115 0 114 138 3 137 3 0 90 0 90 -137 3 -138 3 0 109 0 109
158 3 157 3 0 95 0 95 -258 3 c-201 2 -259 0 -262 -10z"/>
<path d="M2055 4588 c-3 -7 -4 -240 -3 -518 l3 -505 249 -3 c193 -2 251 1 258
10 9 15 11 149 2 172 -5 14 -28 16 -155 16 l-149 0 -2 418 -3 417 -98 3 c-72
2 -99 -1 -102 -10z"/>
<path d="M2665 4588 c-3 -7 -4 -240 -3 -518 l3 -505 95 -3 c80 -2 97 0 107 15
17 22 19 973 3 1004 -9 17 -22 19 -106 19 -66 0 -96 -4 -99 -12z"/>
<path d="M2977 4593 c-6 -9 217 -974 233 -1011 10 -22 13 -23 147 -20 l137 3
23 95 c121 498 220 926 217 932 -7 10 -211 10 -218 0 -2 -4 -39 -183 -82 -397
-43 -214 -80 -382 -83 -374 -2 7 -39 185 -80 394 l-76 380 -107 3 c-58 1 -109
-1 -111 -5z"/>
<path d="M3825 4588 c-3 -7 -4 -240 -3 -518 l3 -505 265 0 265 0 0 95 0 95
-160 5 -160 5 0 110 0 110 135 5 135 5 0 90 0 90 -135 3 -135 3 2 107 2 107
156 3 156 3 -3 97 -3 97 -258 3 c-201 2 -259 0 -262 -10z"/>
<path d="M4485 4588 c-3 -7 -4 -240 -3 -518 l3 -505 100 0 100 0 3 173 2 172
38 0 38 0 63 -152 c90 -216 72 -198 196 -198 77 0 105 3 105 13 0 6 -35 95
-79 197 l-78 185 47 42 c74 66 95 124 95 258 0 98 -3 116 -26 165 -44 93 -112
147 -217 169 -76 16 -381 15 -387 -1z m361 -198 c46 -28 69 -114 53 -191 -15
-72 -45 -93 -135 -97 l-74 -4 0 157 0 158 68 -5 c37 -3 77 -11 88 -18z"/>
<path d="M6950 3762 c-27 -22 -30 -67 -6 -90 15 -15 64 -17 489 -20 526 -2
520 -3 525 60 6 70 18 68 -514 68 -440 0 -473 -1 -494 -18z"/>
<path d="M6530 3510 c-20 -20 -26 -56 -12 -76 22 -33 48 -34 799 -34 833 0
793 -3 793 65 0 68 41 65 -802 65 -745 0 -758 0 -778 -20z"/>
</g>
</svg>
